<mxfile host="app.diagrams.net" agent="Mozilla/5.0 (Windows NT 10.0; Win64; x64) AppleWebKit/537.36 (KHTML, like Gecko) Chrome/131.0.0.0 Safari/537.36" version="24.8.8">
  <diagram name="Page-1" id="5iypHr3FwY_k33wbmCZ2">
    <mxGraphModel dx="1030" dy="575" grid="1" gridSize="10" guides="1" tooltips="1" connect="1" arrows="1" fold="1" page="1" pageScale="1" pageWidth="850" pageHeight="1100" math="0" shadow="0">
      <root>
        <mxCell id="0" />
        <mxCell id="1" parent="0" />
        <mxCell id="2VsjYJJtNGCYxHjk0yOb-1" value="&lt;font style=&quot;font-size: 14px;&quot;&gt;Admin&lt;/font&gt;" style="rounded=0;whiteSpace=wrap;html=1;fillColor=none;" vertex="1" parent="1">
          <mxGeometry x="110" y="120" width="120" height="60" as="geometry" />
        </mxCell>
        <mxCell id="2VsjYJJtNGCYxHjk0yOb-2" value="1. Login" style="ellipse;whiteSpace=wrap;html=1;aspect=fixed;fillColor=none;" vertex="1" parent="1">
          <mxGeometry x="370" y="110" width="80" height="80" as="geometry" />
        </mxCell>
        <mxCell id="2VsjYJJtNGCYxHjk0yOb-3" value="&lt;font style=&quot;font-size: 14px;&quot;&gt;User&lt;/font&gt;" style="rounded=0;whiteSpace=wrap;html=1;fillColor=none;" vertex="1" parent="1">
          <mxGeometry x="592" y="120" width="120" height="60" as="geometry" />
        </mxCell>
        <mxCell id="2VsjYJJtNGCYxHjk0yOb-4" value="" style="endArrow=classic;html=1;rounded=0;exitX=1;exitY=0.25;exitDx=0;exitDy=0;entryX=0.038;entryY=0.342;entryDx=0;entryDy=0;entryPerimeter=0;" edge="1" parent="1" source="2VsjYJJtNGCYxHjk0yOb-1" target="2VsjYJJtNGCYxHjk0yOb-2">
          <mxGeometry width="50" height="50" relative="1" as="geometry">
            <mxPoint x="380" y="300" as="sourcePoint" />
            <mxPoint x="430" y="250" as="targetPoint" />
          </mxGeometry>
        </mxCell>
        <mxCell id="2VsjYJJtNGCYxHjk0yOb-5" value="" style="endArrow=classic;html=1;rounded=0;exitX=1;exitY=0.25;exitDx=0;exitDy=0;entryX=0.038;entryY=0.342;entryDx=0;entryDy=0;entryPerimeter=0;" edge="1" parent="1">
          <mxGeometry width="50" height="50" relative="1" as="geometry">
            <mxPoint x="373" y="162" as="sourcePoint" />
            <mxPoint x="230" y="160" as="targetPoint" />
          </mxGeometry>
        </mxCell>
        <mxCell id="2VsjYJJtNGCYxHjk0yOb-6" value="" style="endArrow=classic;html=1;rounded=0;exitX=0;exitY=0.25;exitDx=0;exitDy=0;entryX=0.038;entryY=0.342;entryDx=0;entryDy=0;entryPerimeter=0;" edge="1" parent="1" source="2VsjYJJtNGCYxHjk0yOb-3">
          <mxGeometry width="50" height="50" relative="1" as="geometry">
            <mxPoint x="590" y="136" as="sourcePoint" />
            <mxPoint x="447" y="134" as="targetPoint" />
          </mxGeometry>
        </mxCell>
        <mxCell id="2VsjYJJtNGCYxHjk0yOb-7" value="" style="endArrow=classic;html=1;rounded=0;exitX=1;exitY=0.25;exitDx=0;exitDy=0;entryX=0.038;entryY=0.342;entryDx=0;entryDy=0;entryPerimeter=0;" edge="1" parent="1">
          <mxGeometry width="50" height="50" relative="1" as="geometry">
            <mxPoint x="450" y="160" as="sourcePoint" />
            <mxPoint x="593" y="162" as="targetPoint" />
          </mxGeometry>
        </mxCell>
        <mxCell id="2VsjYJJtNGCYxHjk0yOb-8" value="Login information" style="text;html=1;align=center;verticalAlign=middle;whiteSpace=wrap;rounded=0;" vertex="1" parent="1">
          <mxGeometry x="250" y="110" width="100" height="30" as="geometry" />
        </mxCell>
        <mxCell id="2VsjYJJtNGCYxHjk0yOb-9" value="Login information" style="text;html=1;align=center;verticalAlign=middle;whiteSpace=wrap;rounded=0;" vertex="1" parent="1">
          <mxGeometry x="480" y="110" width="100" height="30" as="geometry" />
        </mxCell>
        <mxCell id="2VsjYJJtNGCYxHjk0yOb-10" value="System responce" style="text;html=1;align=center;verticalAlign=middle;whiteSpace=wrap;rounded=0;" vertex="1" parent="1">
          <mxGeometry x="250" y="160" width="100" height="30" as="geometry" />
        </mxCell>
        <mxCell id="2VsjYJJtNGCYxHjk0yOb-11" value="System responce" style="text;html=1;align=center;verticalAlign=middle;whiteSpace=wrap;rounded=0;" vertex="1" parent="1">
          <mxGeometry x="473" y="157" width="100" height="30" as="geometry" />
        </mxCell>
        <mxCell id="2VsjYJJtNGCYxHjk0yOb-24" style="edgeStyle=orthogonalEdgeStyle;rounded=0;orthogonalLoop=1;jettySize=auto;html=1;exitX=0.5;exitY=1;exitDx=0;exitDy=0;" edge="1" parent="1" source="2VsjYJJtNGCYxHjk0yOb-13">
          <mxGeometry relative="1" as="geometry">
            <mxPoint x="350" y="400" as="targetPoint" />
            <Array as="points">
              <mxPoint x="410" y="350" />
              <mxPoint x="321" y="350" />
              <mxPoint x="321" y="400" />
            </Array>
          </mxGeometry>
        </mxCell>
        <mxCell id="2VsjYJJtNGCYxHjk0yOb-13" value="2. User Information" style="ellipse;whiteSpace=wrap;html=1;aspect=fixed;fillColor=none;" vertex="1" parent="1">
          <mxGeometry x="370" y="250" width="80" height="80" as="geometry" />
        </mxCell>
        <mxCell id="2VsjYJJtNGCYxHjk0yOb-14" value="" style="endArrow=classic;html=1;rounded=0;entryX=1;entryY=0.5;entryDx=0;entryDy=0;" edge="1" parent="1" target="2VsjYJJtNGCYxHjk0yOb-13">
          <mxGeometry width="50" height="50" relative="1" as="geometry">
            <mxPoint x="630" y="180" as="sourcePoint" />
            <mxPoint x="652" y="330" as="targetPoint" />
            <Array as="points">
              <mxPoint x="630" y="290" />
            </Array>
          </mxGeometry>
        </mxCell>
        <mxCell id="2VsjYJJtNGCYxHjk0yOb-15" value="" style="endArrow=classic;html=1;rounded=0;exitX=0.5;exitY=1;exitDx=0;exitDy=0;entryX=0;entryY=0.5;entryDx=0;entryDy=0;" edge="1" parent="1" target="2VsjYJJtNGCYxHjk0yOb-13">
          <mxGeometry width="50" height="50" relative="1" as="geometry">
            <mxPoint x="172" y="180" as="sourcePoint" />
            <mxPoint x="350" y="290" as="targetPoint" />
            <Array as="points">
              <mxPoint x="172" y="290" />
            </Array>
          </mxGeometry>
        </mxCell>
        <mxCell id="2VsjYJJtNGCYxHjk0yOb-16" value="User details form OAuth" style="text;html=1;align=center;verticalAlign=middle;whiteSpace=wrap;rounded=0;" vertex="1" parent="1">
          <mxGeometry x="500" y="260" width="100" height="30" as="geometry" />
        </mxCell>
        <mxCell id="2VsjYJJtNGCYxHjk0yOb-17" value="Request" style="text;html=1;align=center;verticalAlign=middle;whiteSpace=wrap;rounded=0;" vertex="1" parent="1">
          <mxGeometry x="220" y="260" width="100" height="30" as="geometry" />
        </mxCell>
        <mxCell id="2VsjYJJtNGCYxHjk0yOb-18" value="" style="endArrow=classic;html=1;rounded=0;exitX=0.037;exitY=0.758;exitDx=0;exitDy=0;exitPerimeter=0;entryX=0.403;entryY=1;entryDx=0;entryDy=0;entryPerimeter=0;" edge="1" parent="1" source="2VsjYJJtNGCYxHjk0yOb-13" target="2VsjYJJtNGCYxHjk0yOb-1">
          <mxGeometry width="50" height="50" relative="1" as="geometry">
            <mxPoint x="380" y="290" as="sourcePoint" />
            <mxPoint x="130" y="310" as="targetPoint" />
            <Array as="points">
              <mxPoint x="158" y="310" />
            </Array>
          </mxGeometry>
        </mxCell>
        <mxCell id="2VsjYJJtNGCYxHjk0yOb-19" value="Responce" style="text;html=1;align=center;verticalAlign=middle;whiteSpace=wrap;rounded=0;" vertex="1" parent="1">
          <mxGeometry x="220" y="310" width="100" height="30" as="geometry" />
        </mxCell>
        <mxCell id="2VsjYJJtNGCYxHjk0yOb-21" value="" style="endArrow=none;html=1;rounded=0;" edge="1" parent="1">
          <mxGeometry width="50" height="50" relative="1" as="geometry">
            <mxPoint x="460" y="410" as="sourcePoint" />
            <mxPoint x="460" y="370" as="targetPoint" />
            <Array as="points">
              <mxPoint x="350" y="410" />
              <mxPoint x="350" y="370" />
            </Array>
          </mxGeometry>
        </mxCell>
        <mxCell id="2VsjYJJtNGCYxHjk0yOb-22" value="" style="endArrow=none;html=1;rounded=0;" edge="1" parent="1">
          <mxGeometry width="50" height="50" relative="1" as="geometry">
            <mxPoint x="370" y="410" as="sourcePoint" />
            <mxPoint x="370" y="370" as="targetPoint" />
          </mxGeometry>
        </mxCell>
        <mxCell id="2VsjYJJtNGCYxHjk0yOb-23" value="Registered&lt;div&gt;Information&lt;/div&gt;" style="text;html=1;align=center;verticalAlign=middle;whiteSpace=wrap;rounded=0;" vertex="1" parent="1">
          <mxGeometry x="386" y="375" width="60" height="30" as="geometry" />
        </mxCell>
        <mxCell id="2VsjYJJtNGCYxHjk0yOb-25" value="" style="endArrow=none;html=1;rounded=0;" edge="1" parent="1">
          <mxGeometry width="50" height="50" relative="1" as="geometry">
            <mxPoint x="460" y="470" as="sourcePoint" />
            <mxPoint x="460" y="430" as="targetPoint" />
            <Array as="points">
              <mxPoint x="350" y="470" />
              <mxPoint x="350" y="430" />
            </Array>
          </mxGeometry>
        </mxCell>
        <mxCell id="2VsjYJJtNGCYxHjk0yOb-26" value="" style="endArrow=none;html=1;rounded=0;" edge="1" parent="1">
          <mxGeometry width="50" height="50" relative="1" as="geometry">
            <mxPoint x="370" y="470" as="sourcePoint" />
            <mxPoint x="370" y="430" as="targetPoint" />
          </mxGeometry>
        </mxCell>
        <mxCell id="2VsjYJJtNGCYxHjk0yOb-27" value="Stored user history" style="text;html=1;align=center;verticalAlign=middle;whiteSpace=wrap;rounded=0;" vertex="1" parent="1">
          <mxGeometry x="378" y="435" width="74" height="30" as="geometry" />
        </mxCell>
        <mxCell id="2VsjYJJtNGCYxHjk0yOb-28" value="" style="endArrow=classic;html=1;rounded=0;entryX=0.664;entryY=1.033;entryDx=0;entryDy=0;entryPerimeter=0;" edge="1" parent="1" target="2VsjYJJtNGCYxHjk0yOb-3">
          <mxGeometry width="50" height="50" relative="1" as="geometry">
            <mxPoint x="470" y="462" as="sourcePoint" />
            <mxPoint x="659" y="187" as="targetPoint" />
            <Array as="points">
              <mxPoint x="672" y="460" />
            </Array>
          </mxGeometry>
        </mxCell>
        <mxCell id="2VsjYJJtNGCYxHjk0yOb-30" value="" style="endArrow=classic;html=1;rounded=0;exitX=0.5;exitY=1;exitDx=0;exitDy=0;" edge="1" parent="1" source="2VsjYJJtNGCYxHjk0yOb-3">
          <mxGeometry width="50" height="50" relative="1" as="geometry">
            <mxPoint x="680" y="181" as="sourcePoint" />
            <mxPoint x="470" y="450" as="targetPoint" />
            <Array as="points">
              <mxPoint x="652" y="450" />
            </Array>
          </mxGeometry>
        </mxCell>
        <mxCell id="2VsjYJJtNGCYxHjk0yOb-31" value="3. Bug Reports" style="ellipse;whiteSpace=wrap;html=1;aspect=fixed;fillColor=none;" vertex="1" parent="1">
          <mxGeometry x="376" y="500" width="80" height="80" as="geometry" />
        </mxCell>
        <mxCell id="2VsjYJJtNGCYxHjk0yOb-32" value="" style="endArrow=classic;html=1;rounded=0;exitX=0.5;exitY=1;exitDx=0;exitDy=0;entryX=0.98;entryY=0.381;entryDx=0;entryDy=0;entryPerimeter=0;" edge="1" parent="1" target="2VsjYJJtNGCYxHjk0yOb-31">
          <mxGeometry width="50" height="50" relative="1" as="geometry">
            <mxPoint x="692" y="180" as="sourcePoint" />
            <mxPoint x="510" y="450" as="targetPoint" />
            <Array as="points">
              <mxPoint x="690" y="530" />
            </Array>
          </mxGeometry>
        </mxCell>
        <mxCell id="2VsjYJJtNGCYxHjk0yOb-33" value="Submit reports" style="text;html=1;align=center;verticalAlign=middle;whiteSpace=wrap;rounded=0;" vertex="1" parent="1">
          <mxGeometry x="520" y="503" width="100" height="30" as="geometry" />
        </mxCell>
        <mxCell id="2VsjYJJtNGCYxHjk0yOb-34" value="" style="endArrow=classic;html=1;rounded=0;exitX=0.5;exitY=1;exitDx=0;exitDy=0;entryX=0.005;entryY=0.378;entryDx=0;entryDy=0;entryPerimeter=0;" edge="1" parent="1" target="2VsjYJJtNGCYxHjk0yOb-31">
          <mxGeometry width="50" height="50" relative="1" as="geometry">
            <mxPoint x="138" y="180" as="sourcePoint" />
            <mxPoint x="-100" y="530" as="targetPoint" />
            <Array as="points">
              <mxPoint x="136" y="530" />
            </Array>
          </mxGeometry>
        </mxCell>
        <mxCell id="2VsjYJJtNGCYxHjk0yOb-35" value="View and update" style="text;html=1;align=center;verticalAlign=middle;whiteSpace=wrap;rounded=0;" vertex="1" parent="1">
          <mxGeometry x="200" y="503" width="100" height="30" as="geometry" />
        </mxCell>
      </root>
    </mxGraphModel>
  </diagram>
</mxfile>
